<?xml version="1.0" encoding="iso-8859-1"?>
<!-- Generator: Adobe Illustrator 21.1.0, SVG Export Plug-In . SVG Version: 6.00 Build 0)  -->
<svg version="1.1" id="Layer_1" xmlns="http://www.w3.org/2000/svg" xmlns:xlink="http://www.w3.org/1999/xlink" x="0px" y="0px"
	 viewBox="0 0 24 24" enable-background="new 0 0 24 24" xml:space="preserve">
<g>
	<path fill="#231F20" d="M2,8v1c0,0.6,0.4,1,1,1h2v7c0,0.6,0.4,1,1,1h1c0.6,0,1-0.4,1-1v-7h2c0.6,0,1-0.4,1-1V8c0-0.6-0.4-1-1-1H3
		C2.4,7,2,7.4,2,8z"/>
	<path fill="#231F20" d="M21,7h-7c-0.6,0-1,0.4-1,1v1c0,0.6,0.4,1,1,1h2v7c0,0.6,0.4,1,1,1h1c0.6,0,1-0.4,1-1v-7h2c0.6,0,1-0.4,1-1
		V8C22,7.4,21.6,7,21,7z"/>
</g>
</svg>
