<?xml version="1.0" encoding="utf-8"?>
<!-- Generator: Adobe Illustrator 21.1.0, SVG Export Plug-In . SVG Version: 6.00 Build 0)  -->
<svg version="1.1" id="Layer_1" xmlns="http://www.w3.org/2000/svg" xmlns:xlink="http://www.w3.org/1999/xlink" x="0px" y="0px"
	 width="24px" height="24px" viewBox="0 0 24 24" style="enable-background:new 0 0 24 24;" xml:space="preserve">
<style type="text/css">
	.st0{fill:#231F20;}
</style>
<path class="st0" d="M21.6,17.6l-3-3c-0.2-0.2-0.6,0-0.6,0.4v2H6v-2c0-0.4-0.4-0.5-0.7-0.3l-3,3c-0.2,0.2-0.2,0.5,0,0.7l3,3
	C5.6,21.6,6,21.4,6,21v-2h12v2c0,0.4,0.4,0.5,0.7,0.3l3-3C21.8,18.2,21.8,17.8,21.6,17.6z"/>
<path class="st0" d="M10,12.4l-0.5-1.2H5.3l-0.5,1.2C4.7,12.8,4.4,13,4,13l0,0c-0.7,0-1.2-0.7-0.9-1.3L6,5c0.3-0.6,0.8-1,1.5-1l0,0
	C8.2,4,8.8,4.4,9,5l2.9,6.7c0.3,0.6-0.2,1.3-0.9,1.3h-0.1C10.5,13,10.2,12.8,10,12.4z M6,9.6h2.9L7.5,6.1L6,9.6z"/>
<g>
	<path class="st0" d="M17,13h-2.5c-0.8,0-1.5-0.7-1.5-1.5v-6C13,4.7,13.7,4,14.5,4h2.1c0.6,0,1.1,0.1,1.6,0.2s0.8,0.4,1,0.6
		c0.5,0.4,0.6,1,0.6,1.6c0,0.7-0.2,1.2-0.7,1.6c-0.2,0.2-0.3,0.2-0.3,0.2c-0.1,0-0.2,0.1-0.3,0.1c0.6,0.2,1,0.4,1.4,0.8
		c0.4,0.4,0.5,0.8,0.5,1.4c0,0.6-0.2,1.2-0.7,1.7C19.1,12.7,18.2,13,17,13z M15.1,7.7H16c0.6,0,1-0.1,1.2-0.2
		c0.3-0.1,0.5-0.4,0.5-0.7S17.5,6.1,17.3,6c-0.2-0.2-0.7-0.2-1.3-0.2h-0.9C15.1,5.8,15.1,7.7,15.1,7.7z M15.1,11.3h1.4
		c0.6,0,1-0.1,1.3-0.2c0.3-0.1,0.5-0.4,0.5-0.8S18,9.6,17.8,9.5c-0.3-0.2-0.8-0.2-1.5-0.2h-1.2V11.3z"/>
</g>
</svg>
