<?xml version="1.0" encoding="utf-8"?>
<!-- Generator: Adobe Illustrator 21.1.0, SVG Export Plug-In . SVG Version: 6.00 Build 0)  -->
<svg version="1.1" id="Layer_1" xmlns="http://www.w3.org/2000/svg" xmlns:xlink="http://www.w3.org/1999/xlink" x="0px" y="0px"
	 width="24px" height="24px" viewBox="0 0 24 24" style="enable-background:new 0 0 24 24;" xml:space="preserve">
<style type="text/css">
	.st0{fill:#010101;}
</style>
<g id="Layer_1_1_">
	<path class="st0" d="M11,10.5c0,2.9-2.2,5.8-5.5,6.5L5,15.8c1.2-0.5,2.3-2.1,2.4-3.2C6,12.4,5,11.2,5,9.7C5,8,6.5,7,7.9,7
		C9.5,7,11,8.3,11,10.5z M19,10.5c0,2.9-2.2,5.8-5.5,6.5L13,15.8c1.2-0.5,2.3-2.1,2.4-3.2C14,12.4,13,11.2,13,9.7
		C13,8,14.4,7,15.8,7C17.4,7,19,8.3,19,10.5z"/>
</g>
<g id="Layer_2">
</g>
<g id="Layer_3">
</g>
<g id="Layer_4">
</g>
<g id="Layer_5">
</g>
<g id="Layer_6">
</g>
</svg>
