<?xml version="1.0" encoding="utf-8"?>
<!-- Generator: Adobe Illustrator 21.1.0, SVG Export Plug-In . SVG Version: 6.00 Build 0)  -->
<svg version="1.1" id="Layer_1" xmlns="http://www.w3.org/2000/svg" xmlns:xlink="http://www.w3.org/1999/xlink" x="0px" y="0px"
	 width="24px" height="24px" viewBox="0 0 24 24" style="enable-background:new 0 0 24 24;" xml:space="preserve">
<style type="text/css">
	.st0{fill:#231F20;}
</style>
<g>
	<path class="st0" d="M12.5,18H9c-1.1,0-2-0.9-2-2V8c0-1.1,0.9-2,2-2h2.9c0.8,0,1.6,0.1,2.2,0.3c0.6,0.2,1.1,0.5,1.4,0.8
		c0.6,0.6,0.8,1.3,0.8,2.1c0,0.9-0.3,1.6-1,2.1c-0.2,0.2-0.4,0.3-0.4,0.3c-0.1,0-0.2,0.1-0.4,0.2c0.8,0.2,1.4,0.5,1.9,1
		s0.7,1.1,0.7,1.9c0,0.8-0.3,1.6-0.9,2.2C15.4,17.6,14.2,18,12.5,18z M9.8,10.9h1.3c0.8,0,1.4-0.1,1.7-0.2c0.4-0.2,0.6-0.5,0.6-1
		s-0.2-0.9-0.5-1.1c-0.3-0.2-0.9-0.3-1.8-0.3H9.8V10.9z M9.8,15.7h1.9c0.8,0,1.4-0.1,1.8-0.3s0.6-0.6,0.6-1.1s-0.2-0.9-0.6-1.1
		c-0.4-0.2-1.1-0.3-2-0.3H9.8V15.7z"/>
</g>
</svg>
