<?xml version="1.0" encoding="utf-8"?>
<!-- Generator: Adobe Illustrator 21.1.0, SVG Export Plug-In . SVG Version: 6.00 Build 0)  -->
<svg version="1.1" id="Layer_1" xmlns="http://www.w3.org/2000/svg" xmlns:xlink="http://www.w3.org/1999/xlink" x="0px" y="0px"
	 width="24px" height="24px" viewBox="0 0 24 24" style="enable-background:new 0 0 24 24;" xml:space="preserve">
<g id="Layer_1_1_">
	<g>
		<rect x="9" y="5" width="11" height="1"/>
		<rect x="9" y="8" width="11" height="1"/>
		<rect x="9" y="11" width="11" height="1"/>
		<rect x="9" y="14" width="11" height="1"/>
		<rect x="9" y="17" width="11" height="1"/>
	</g>
</g>
<g id="Layer_2">
</g>
<g id="Layer_3">
</g>
<g id="Layer_4">
</g>
<g id="Layer_5">
</g>
<g id="Layer_6">
</g>
<g>
	<path d="M3.1,5h2.5v5H4V6.3H3.1V5z"/>
</g>
<g>
	<path d="M7,15.7V17H3.2l0-1l1.7-1.8C5,14.1,5.1,14,5.1,13.9c0.1-0.1,0.1-0.2,0.1-0.3c0-0.1,0-0.1-0.1-0.2c-0.1,0-0.1-0.1-0.2-0.1
		c-0.2,0-0.4,0.1-0.6,0.2c-0.2,0.1-0.5,0.3-0.7,0.5L3,12.8C3.7,12.3,4.5,12,5.2,12c0.3,0,0.6,0.1,0.9,0.2c0.3,0.1,0.5,0.3,0.6,0.5
		c0.2,0.2,0.2,0.4,0.2,0.7c0,0.3-0.1,0.5-0.2,0.8C6.5,14.4,6.3,14.7,6,15l-0.7,0.8H7z"/>
</g>
</svg>
