<?xml version="1.0" encoding="utf-8"?>
<!-- Generator: Adobe Illustrator 21.1.0, SVG Export Plug-In . SVG Version: 6.00 Build 0)  -->
<svg version="1.1" id="Layer_1" xmlns="http://www.w3.org/2000/svg" xmlns:xlink="http://www.w3.org/1999/xlink" x="0px" y="0px"
	 width="24px" height="24px" viewBox="0 0 24 24" style="enable-background:new 0 0 24 24;" xml:space="preserve">
<g id="Layer_2">
</g>
<g id="Layer_3">
</g>
<g id="Layer_4">
</g>
<g id="Layer_5">
</g>
<g id="Layer_6">
</g>
<path d="M5,11h14c0.6,0,1,0.4,1,1l0,0c0,0.6-0.4,1-1,1H5c-0.6,0-1-0.4-1-1l0,0C4,11.4,4.4,11,5,11z"/>
<g>
	<path d="M8.3,11.6c0.3,0.3,0.7,0.5,1.2,0.7h6.6l0,0c-0.7-0.6-1.8-1.1-3.1-1.5c-1.4-0.3-2.3-0.7-2.7-1C9.8,9.7,9.6,9.2,9.6,8.7
		c0-0.6,0.2-1,0.7-1.3c0.4-0.3,1-0.4,1.7-0.4s1.4,0.1,2,0.4c0.3,0.1,0.7,0.2,0.9,0.4c0.5,0.2,1.1,0.1,1.4-0.3l0,0
		C16.6,7,16.4,6.3,15.8,6c-0.4-0.2-0.8-0.4-1.2-0.5C13.8,5.2,12.8,5,11.9,5c-1.4,0-2.4,0.4-3.4,1.1C7.6,6.7,7.1,7.7,7.1,9
		C7.1,10.1,7.5,11,8.3,11.6z"/>
	<path d="M14.6,14.3c0.1,0.2,0.2,0.4,0.2,0.8c0,0.5-0.2,1-0.7,1.3c-0.4,0.3-1,0.5-1.8,0.5c-1.2,0-2.3-0.4-3.5-1.2
		c-0.5-0.3-1.2-0.2-1.6,0.2l0,0c-0.4,0.5-0.3,1.3,0.2,1.7c1.4,1,2.9,1.5,4.7,1.5c1.5,0,2.6-0.4,3.5-1.1c0.9-0.8,1.4-1.8,1.4-2.9
		c0-0.3,0-0.5-0.1-0.8L14.6,14.3L14.6,14.3z"/>
</g>
</svg>
