<?xml version="1.0" encoding="iso-8859-1"?>
<!-- Generator: Adobe Illustrator 21.1.0, SVG Export Plug-In . SVG Version: 6.00 Build 0)  -->
<svg version="1.1" id="Layer_1" xmlns="http://www.w3.org/2000/svg" xmlns:xlink="http://www.w3.org/1999/xlink" x="0px" y="0px"
	 viewBox="0 0 24 24" enable-background="new 0 0 24 24" xml:space="preserve">
<path d="M15,5c-0.6,0-1,0.4-1,1v4.9V11l0,0c0,1.2-1.1,2.2-2.3,2c-1-0.2-1.7-1.1-1.7-2.1L10,6c0-0.6-0.4-1-1-1H8C7.4,5,7,5.4,7,6
	l0,4.8c0,2.8,2.3,5.3,5.2,5.2c2.7-0.1,4.8-2.3,4.8-5V6c0-0.6-0.4-1-1-1H15z"/>
<path d="M16,19H8c-0.6,0-1-0.4-1-1l0,0c0-0.6,0.4-1,1-1h8c0.6,0,1,0.4,1,1l0,0C17,18.6,16.6,19,16,19z"/>
</svg>
